<svg xmlns="http://www.w3.org/2000/svg" version="1.1" xmlns:xlink="http://www.w3.org/1999/xlink" xmlns:svgjs="http://svgjs.dev/svgjs" width="1440" height="560" preserveAspectRatio="none" viewBox="0 0 1440 560"><g mask="url(&quot;#SvgjsMask1021&quot;)" fill="none"><rect width="1440" height="560" x="0" y="0" fill="rgba(255, 255, 255, 1)"></rect><path d="M720 681.17C828.15 684.09 938.38 651.31 1012.84 572.84 1085.77 496 1096.38 385.84 1100.66 280 1105.19 167.9 1116.88 41.8 1037.56-37.56 958.24-116.92 832.2-101.17 720-100.77 608.41-100.36 487.27-110.35 404.65-35.35 319.45 42 293.2 165.15 300.54 280 307.41 387.81 364.43 482.84 442.49 557.51 518.55 630.27 614.77 678.34 720 681.17" fill="rgba(250, 172, 215, 1)"></path><path d="M720 539.58C789.98 541.47 861.31 520.26 909.49 469.49 956.68 419.77 963.54 348.49 966.31 280 969.24 207.47 976.81 125.87 925.48 74.52 874.15 23.17 792.6 33.36 720 33.62 647.8 33.89 569.41 27.42 515.95 75.95 460.82 126 443.83 205.68 448.59 280 453.03 349.76 489.92 411.25 540.44 459.56 589.65 506.64 651.91 537.75 720 539.58" fill="rgba(231, 160, 160, 1)"></path><path d="M720 397.99C751.81 398.85 784.23 389.21 806.13 366.13 827.58 343.53 830.7 311.13 831.96 280 833.29 247.03 836.73 209.94 813.4 186.6 790.07 163.26 753 167.89 720 168.01 687.18 168.13 651.55 165.19 627.25 187.25 602.19 210 594.47 246.22 596.63 280 598.65 311.71 615.42 339.66 638.38 361.62 660.75 383.02 689.05 397.16 720 397.99" fill="rgba(184, 205, 240, 1)"></path></g><defs><mask id="SvgjsMask1021"><rect width="1440" height="560" fill="#ffffff"></rect></mask></defs></svg>